<svg xmlns="http://www.w3.org/2000/svg" xmlns:xlink="http://www.w3.org/1999/xlink" width="50" zoomAndPan="magnify" viewBox="0 0 37.5 37.499999" height="50" preserveAspectRatio="xMidYMid meet" version="1.0"><defs><g/><clipPath id="ef2aea80ad"><path d="M 0 0 L 36.65625 0 L 36.65625 36.65625 L 0 36.65625 Z M 0 0 " clip-rule="nonzero"/></clipPath><clipPath id="1ca5e7f20f"><path d="M 18.328125 0 C 8.207031 0 0 8.207031 0 18.328125 C 0 28.449219 8.207031 36.65625 18.328125 36.65625 C 28.449219 36.65625 36.65625 28.449219 36.65625 18.328125 C 36.65625 8.207031 28.449219 0 18.328125 0 Z M 18.328125 0 " clip-rule="nonzero"/></clipPath><clipPath id="259db58a37"><path d="M 7.617188 3.699219 L 29.082031 3.699219 L 29.082031 34 L 7.617188 34 Z M 7.617188 3.699219 " clip-rule="nonzero"/></clipPath></defs><g clip-path="url(#ef2aea80ad)"><g clip-path="url(#1ca5e7f20f)"><path fill="#252525" d="M 0 0 L 36.65625 0 L 36.65625 36.65625 L 0 36.65625 Z M 0 0 " fill-opacity="1" fill-rule="nonzero"/></g></g><g fill="#ffffff" fill-opacity="1"><g transform="translate(18.0754, 17.763157)"><g><path d="M 0.046875 0 L 0.046875 -0.0625 L 0.34375 -0.453125 L 0.0625 -0.453125 L 0.0625 -0.515625 L 0.4375 -0.515625 L 0.4375 -0.46875 L 0.140625 -0.0625 L 0.453125 -0.0625 L 0.453125 0 Z M 0.046875 0 "/></g></g></g><g clip-path="url(#259db58a37)"><path fill="#ffffff" d="M 29.367188 12.335938 C 29.378906 17.117188 25.492188 21.011719 20.710938 21.011719 L 15.996094 21.011719 C 13.949219 21.011719 12.292969 22.671875 12.292969 24.714844 L 12.292969 29.480469 L 7.785156 33.988281 L 7.785156 25.882812 C 7.785156 20.707031 11.984375 16.507812 17.160156 16.507812 L 20.710938 16.507812 C 22.992188 16.507812 24.851562 14.65625 24.863281 12.375 C 24.871094 10.082031 22.976562 8.207031 20.683594 8.207031 L 12.125 8.207031 L 7.617188 3.699219 L 20.667969 3.699219 C 25.449219 3.699219 29.355469 7.554688 29.367188 12.335938 Z M 29.367188 12.335938 " fill-opacity="1" fill-rule="nonzero"/></g></svg>